#!OML:ASF H:\MichaelJackson\Top Level 1\Subject 1\Session 1\male.ASF
:FULLY-SPECIFIED
:DEGREES
679
root 5.36615 16.0946 0.923185 15.6688 -23.2637 0.00478013
lowerback 0.983374 -6.67723 0.112928
upperback -1.88847 -8.89856 0.944236
thorax -2.35464 -4.44124 1.16379
lowerneck -9.48388 -3.62217 0.69944
upperneck 2.50615 -5.03228 2.08481
head 2.475 -2.43141 0.293524
rclavicle 9.0944e-014 -1.47101e-014
rhumerus -45.979 -9.43594 -44.2956
rradius 77.3869
rwrist -22.0059
rhand -26.8769 -47.7516
rfingers 7.12502
rthumb -0.301241 -797.731
lclavicle 9.0944e-014 -1.47101e-014
lhumerus 15.0837 -62.2156 54.3049
lradius 92.0489
lwrist 29.6201
lhand -14.5917 -1.26607
lfingers 7.12502
lthumb 11.5586 28.3952
rfemur -38.4597 -11.4228 26.216
rtibia 61.5558
rfoot -24.2874 -6.12902
rtoes 0.158054
lfemur -37.2228 26.5939 -10.2235
ltibia 106.48
lfoot 22.7826 -21.0669
ltoes 13.7221
680
root 5.35757 16.1485 1.05149 15.4457 -24.6551 -0.0188455
lowerback 1.2829 -6.68443 0.0475016
upperback -1.8514 -8.91007 0.842014
thorax -2.48965 -4.4449 1.13259
lowerneck -9.24205 -3.56945 0.702065
upperneck 2.62229 -4.96469 2.15003
head 2.47081 -2.39551 0.320897
rclavicle 1.30303e-013 2.06736e-014
rhumerus -45.2935 -8.74488 -42.9472
rradius 79.7625
rwrist -21.6464
rhand -26.8969 -47.4337
rfingers 7.12502
rthumb -0.320506 -797.413
lclavicle 1.30303e-013 2.06736e-014
lhumerus 18.1137 -60.1086 49.3292
lradius 92.6218
lwrist 30.0796
lhand -14.8207 -1.41853
lfingers 7.12502
lthumb 11.3377 28.255
rfemur -37.0493 -10.5986 25.6188
rtibia 60.2502
rfoot -24.182 -5.83958
rtoes 0.136471
lfemur -38.6408 26.5214 -7.68396
ltibia 110.835
lfoot 23.3716 -22.1735
ltoes 13.8335
681
root 5.34771 16.2129 1.18182 15.2274 -26.0224 -0.0122615
lowerback 1.55509 -6.67845 -0.0570542
upperback -1.8167 -8.90656 0.711708
thorax -2.61069 -4.44066 1.09006
lowerneck -8.96641 -3.55064 0.687534
upperneck 2.74461 -4.9424 2.25789
head 2.4645 -2.38116 0.363039
rclavicle 1.97791e-014 -7.15625e-015
rhumerus -44.6834 -8.10152 -41.4483
rradius 82.1985
rwrist -21.0238
rhand -26.9459 -47.0271
rfingers 7.12502
rthumb -0.367855 -797.006
lclavicle 1.97791e-014 -7.15625e-015
lhumerus 20.9725 -57.8235 44.5112
lradius 92.9867
lwrist 30.5707
lhand -15.0743 -1.56281
lfingers 7.12502
lthumb 11.0931 28.124
rfemur -35.578 -9.8686 25.0146
rtibia 58.7434
rfoot -24.0011 -5.45933
rtoes 0.358894
lfemur -39.9753 26.4906 -4.8857
ltibia 114.956
lfoot 23.3737 -22.8112
ltoes 13.8025
682
root 5.33664 16.2891 1.31471 15.003 -27.366 0.0320127
lowerback 1.80495 -6.65718 -0.197746
upperback -1.78537 -8.88554 0.550957
thorax -2.72242 -4.42733 1.03274
lowerneck -8.66245 -3.56621 0.652292
upperneck 2.88106 -4.96603 2.40592
head 2.45994 -2.38873 0.419638
rclavicle -1.04461e-013 -1.82882e-014
rhumerus -44.1446 -7.54012 -39.7846
rradius 84.6486
rwrist -20.1774
rhand -27.0233 -46.5246
rfingers 7.12502
rthumb -0.442584 -796.504
lclavicle -1.04461e-013 -1.82882e-014
lhumerus 23.6281 -55.3865 39.9103
lradius 93.1194
lwrist 31.0509
lhand -15.3711 -1.70221
lfingers 7.12502
lthumb 10.8068 27.9998
rfemur -34.0225 -9.23876 24.3851
rtibia 57.0082
rfoot -23.7266 -4.9542
rtoes 0.853118
lfemur -41.2183 26.4607 -1.8403
ltibia 118.756
lfoot 22.9929 -22.9862
ltoes 13.9406
683
root 5.32467 16.3782 1.4507 14.7625 -28.6903 0.120972
lowerback 2.03794 -6.61885 -0.369693
upperback -1.75724 -8.8449 0.35795
thorax -2.82876 -4.40391 0.956672
lowerneck -8.33803 -3.6143 0.593916
upperneck 3.03588 -5.03343 2.59357
head 2.46024 -2.41719 0.490955
rclavicle -8.91549e-014 -2.06736e-014
rhumerus -43.6678 -7.08832 -37.9536
rradius 87.0646
rwrist -19.1796
rhand -27.1402 -45.9249
rfingers 7.12502
rthumb -0.555473 -795.904
lclavicle -8.91549e-014 -2.06736e-014
lhumerus 26.0518 -52.833 35.5808
lradius 93.0058
lwrist 31.4726
lhand -15.7158 -1.84665
lfingers 7.12502
lthumb 10.4744 27.8724
rfemur -32.3629 -8.70221 23.7112
rtibia 55.0168
rfoot -23.3267 -4.30138
rtoes 1.61909
lfemur -42.375 26.3693 1.40168
ltibia 122.147
lfoot 22.4235 -22.7324
ltoes 14.4748
